<?xml version="1.0" encoding="UTF-8" standalone="no"?>
<svg
   viewBox="0 0 40 40"
   version="1.1"
   id="svg7057"
   sodipodi:docname="7422531_css3_css_file_development_icon.svg"
   inkscape:version="1.2.1 (9c6d41e410, 2022-07-14, custom)"
   xmlns:inkscape="http://www.inkscape.org/namespaces/inkscape"
   xmlns:sodipodi="http://sodipodi.sourceforge.net/DTD/sodipodi-0.dtd"
   xmlns="http://www.w3.org/2000/svg"
   xmlns:svg="http://www.w3.org/2000/svg">
  <defs
     id="defs7061" />
  <sodipodi:namedview
     id="namedview7059"
     pagecolor="#505050"
     bordercolor="#eeeeee"
     borderopacity="1"
     inkscape:showpageshadow="0"
     inkscape:pageopacity="0"
     inkscape:pagecheckerboard="0"
     inkscape:deskcolor="#505050"
     showgrid="false"
     inkscape:zoom="21.325"
     inkscape:cx="12.497069"
     inkscape:cy="14.841735"
     inkscape:window-width="1920"
     inkscape:window-height="1056"
     inkscape:window-x="1920"
     inkscape:window-y="24"
     inkscape:window-maximized="1"
     inkscape:current-layer="svg7057" />
  <g
     id="CSS3">
    <path
       d="M32.34,6,30.1,31.2,20,34,9.9,31.2,7.66,6ZM13.22,22l.43,4.86L20,28.65h0l6.33-1.75,1.4-15.75H12.25l.28,3.09H24.34l-.28,3.17H12.81l.27,3.09H23.8l-.36,4L20,25.44h0l-3.45-.93L16.32,22Z"
       id="path7054" />
  </g>
  <path
     style="fill:#000000;stroke:#ffffff;stroke-width:0.5;stroke-dasharray:none"
     d="M 14.920302,32.569421 C 12.203842,31.813941 9.965198,31.177347 9.9455378,31.154769 9.9258775,31.13219 9.4196062,25.574443 8.8204904,18.80422 8.2213746,12.033998 7.7191295,6.383939 7.7043902,6.2485346 L 7.6775914,6.0023447 H 20 32.322408 l -0.0268,0.2461899 C 32.28087,6.383939 31.778626,12.033998 31.179509,18.80422 c -0.599115,6.770223 -1.106181,12.328765 -1.126813,12.352315 -0.05194,0.05928 -9.931034,2.795012 -10.076143,2.790296 -0.06448,-0.0021 -2.339791,-0.62193 -5.056251,-1.37741 z m 8.280345,-4.777768 c 1.708774,-0.472788 3.117096,-0.869849 3.129606,-0.88236 0.01251,-0.01251 0.32875,-3.471398 0.702754,-7.686418 0.374005,-4.215019 0.692751,-7.763907 0.708323,-7.886415 l 0.02831,-0.222744 H 20.0044 c -7.364063,0 -7.765264,0.0042 -7.765626,0.08206 -5.98e-4,0.128361 0.23396,2.736792 0.261441,2.907385 l 0.02455,0.152404 h 5.882986 5.882987 l 6.98e-4,0.128956 c 3.75e-4,0.07093 -0.05617,0.777843 -0.125674,1.570926 l -0.126373,1.44197 h -5.618757 -5.618757 l 0.0036,0.17585 c 0.002,0.09672 0.06003,0.798359 0.128956,1.559203 l 0.125319,1.383352 5.362856,0.01192 5.362856,0.01192 -0.0272,0.199097 c -0.01496,0.109503 -0.09422,0.979871 -0.176141,1.93415 -0.08599,1.001791 -0.17087,1.757231 -0.200835,1.78753 -0.02854,0.02886 -0.800086,0.255418 -1.71454,0.503456 l -1.662643,0.450978 -1.690229,-0.452352 c -0.929626,-0.248793 -1.704067,-0.464797 -1.720979,-0.480009 -0.01691,-0.01521 -0.07935,-0.581584 -0.138759,-1.258606 l -0.108009,-1.23095 h -1.580181 c -1.480115,0 -1.579109,0.0052 -1.563266,0.08206 0.0093,0.04513 0.103953,1.116061 0.210332,2.379836 0.106379,1.263775 0.209759,2.329239 0.229733,2.367697 0.03682,0.0709 6.096416,1.816619 6.333771,1.82471 0.06448,0.0022 1.515321,-0.382831 3.224094,-0.855619 z"
     id="path7922" />
</svg>
