<?xml version="1.0" encoding="UTF-8" standalone="no"?>
<svg
   class="bi bi-git"
   fill="currentColor"
   height="16"
   viewBox="0 0 16 16"
   width="16"
   version="1.1"
   id="svg5654"
   sodipodi:docname="9041208_git_icon(1).svg"
   inkscape:version="1.2.1 (9c6d41e410, 2022-07-14, custom)"
   xmlns:inkscape="http://www.inkscape.org/namespaces/inkscape"
   xmlns:sodipodi="http://sodipodi.sourceforge.net/DTD/sodipodi-0.dtd"
   xmlns="http://www.w3.org/2000/svg"
   xmlns:svg="http://www.w3.org/2000/svg">
  <defs
     id="defs5658" />
  <sodipodi:namedview
     id="namedview5656"
     pagecolor="#505050"
     bordercolor="#eeeeee"
     borderopacity="1"
     inkscape:showpageshadow="0"
     inkscape:pageopacity="0"
     inkscape:pagecheckerboard="0"
     inkscape:deskcolor="#505050"
     showgrid="false"
     inkscape:zoom="37.69763"
     inkscape:cx="5.1329486"
     inkscape:cy="6.8306681"
     inkscape:window-width="1920"
     inkscape:window-height="1056"
     inkscape:window-x="1920"
     inkscape:window-y="24"
     inkscape:window-maximized="1"
     inkscape:current-layer="svg5654" />
  <path
     d="M15.698 7.287 8.712.302a1.03 1.03 0 0 0-1.457 0l-1.45 1.45 1.84 1.84a1.223 1.223 0 0 1 1.55 1.56l1.773 1.774a1.224 1.224 0 0 1 1.267 2.025 1.226 1.226 0 0 1-2.002-1.334L8.58 5.963v4.353a1.226 1.226 0 1 1-1.008-.036V5.887a1.226 1.226 0 0 1-.666-1.608L5.093 2.465l-4.79 4.79a1.03 1.03 0 0 0 0 1.457l6.986 6.986a1.03 1.03 0 0 0 1.457 0l6.953-6.953a1.031 1.031 0 0 0 0-1.457"
     id="path5652" />
  <path
     style="fill:#000000;stroke:#ffffff;stroke-width:0.25;stroke-dasharray:none"
     d="M 7.9720838,0.00329719 C 7.6834845,0.00510728 7.4009806,0.13196804 7.2140809,0.35347583 6.7419873,0.8141536 6.2632934,1.2702818 5.8147714,1.7535536 6.4053655,2.3782111 7.0244179,2.9760508 7.6293595,3.5870091 8.0104943,3.486503 8.4413864,3.5244387 8.7617966,3.7691603 c 0.3498275,0.2502442 0.5365,0.6923078 0.4865915,1.1178928 -0.00389,0.089979 -0.026425,0.1773971 -0.056748,0.2618332 0.5921406,0.5923185 1.1842909,1.1846276 1.7764509,1.776927 0.395287,-0.1233839 0.853932,-0.063216 1.172882,0.2120092 0.325988,0.2571299 0.499394,0.6866481 0.435045,1.0981094 -0.05459,0.5946641 -0.619399,1.0942655 -1.218566,1.0650279 -0.651796,0.023394 -1.241292,-0.577751 -1.207247,-1.2287514 4e-6,-0.155158 0.02534,-0.3102858 0.08463,-0.4542057 C 9.6805785,7.0638773 9.1263338,6.5097424 8.5720985,5.9555978 c 0,1.4518612 0,2.9037222 0,4.3555832 0.4369589,0.219955 0.7241709,0.707266 0.6791105,1.197685 -0.034593,0.631345 -0.6341243,1.177842 -1.2709188,1.120164 -0.550814,-0.0091 -1.0532356,-0.450908 -1.1451862,-0.99249 -0.1133781,-0.554132 0.2210943,-1.148613 0.7428561,-1.358148 0,-1.4626559 0,-2.9253121 0,-4.3879686 C 7.0724881,5.684051 6.7447996,5.1231398 6.8272642,4.5815137 6.8404226,4.4752848 6.8728548,4.3729446 6.9072758,4.2720178 6.3019821,3.6742181 5.7104128,3.0570986 5.0910756,2.4767732 3.6285607,3.9125083 2.1849482,5.3676093 0.74024525,6.8213018 0.53184596,7.0498697 0.28402767,7.2500485 0.11715772,7.5122875 -0.08341873,7.8916916 -0.02127775,8.4080058 0.31055375,8.6942745 1.6211189,10.04514 2.9626827,11.365602 4.289754,12.700211 c 1.0497831,1.043603 2.0891562,2.098218 3.1550364,3.125295 0.3284712,0.230051 0.7935291,0.221421 1.1284804,0.01154 1.3251956,-1.281112 2.6222252,-2.591191 3.9293392,-3.890739 1.101303,-1.106112 2.21327,-2.2020155 3.2978,-3.3245676 0.253327,-0.333944 0.2705,-0.8441113 0.01396,-1.1797333 C 15.097178,6.6713459 14.338815,5.9399689 13.599747,5.1903964 11.925985,3.5189117 10.261854,1.83751 8.5700836,0.18423946 8.3990974,0.05875463 8.1829552,1.6450176e-5 7.9720838,0.00329719 Z"
     id="path6140" />
</svg>
