<?xml version="1.0" encoding="UTF-8" standalone="no"?>
<svg
   viewBox="0 0 640 512"
   version="1.1"
   id="svg4"
   sodipodi:docname="8666226_golang_icon.svg"
   inkscape:version="1.2.1 (9c6d41e410, 2022-07-14, custom)"
   xmlns:inkscape="http://www.inkscape.org/namespaces/inkscape"
   xmlns:sodipodi="http://sodipodi.sourceforge.net/DTD/sodipodi-0.dtd"
   xmlns="http://www.w3.org/2000/svg"
   xmlns:svg="http://www.w3.org/2000/svg">
  <defs
     id="defs8" />
  <sodipodi:namedview
     id="namedview6"
     pagecolor="#505050"
     bordercolor="#eeeeee"
     borderopacity="1"
     inkscape:showpageshadow="0"
     inkscape:pageopacity="0"
     inkscape:pagecheckerboard="0"
     inkscape:deskcolor="#505050"
     showgrid="false"
     inkscape:zoom="1.1780509"
     inkscape:cx="320.44455"
     inkscape:cy="298.37419"
     inkscape:window-width="1920"
     inkscape:window-height="1056"
     inkscape:window-x="1920"
     inkscape:window-y="24"
     inkscape:window-maximized="1"
     inkscape:current-layer="svg4" />
  <path
     d="M400.1 194.8C389.2 197.6 380.2 199.1 371 202.4C363.7 204.3 356.3 206.3 347.8 208.5L347.2 208.6C343 209.8 342.6 209.9 338.7 205.4C334 200.1 330.6 196.7 324.1 193.5C304.4 183.9 285.4 186.7 267.7 198.2C246.5 211.9 235.6 232.2 235.9 257.4C236.2 282.4 253.3 302.9 277.1 306.3C299.1 309.1 316.9 301.7 330.9 285.8C333 283.2 334.9 280.5 337 277.5V277.5L337 277.5C337.8 276.5 338.5 275.4 339.3 274.2H279.2C272.7 274.2 271.1 270.2 273.3 264.9C277.3 255.2 284.8 239 289.2 230.9C290.1 229.1 292.3 225.1 296.1 225.1H397.2C401.7 211.7 409 198.2 418.8 185.4C441.5 155.5 468.1 139.9 506 133.4C537.8 127.8 567.7 130.9 594.9 149.3C619.5 166.1 634.7 188.9 638.8 218.8C644.1 260.9 631.9 295.1 602.1 324.4C582.4 345.3 557.2 358.4 528.2 364.3C522.6 365.3 517.1 365.8 511.7 366.3C508.8 366.5 506 366.8 503.2 367.1C474.9 366.5 449 358.4 427.2 339.7C411.9 326.4 401.3 310.1 396.1 291.2C392.4 298.5 388.1 305.6 382.1 312.3C360.5 341.9 331.2 360.3 294.2 365.2C263.6 369.3 235.3 363.4 210.3 344.7C187.3 327.2 174.2 304.2 170.8 275.5C166.7 241.5 176.7 210.1 197.2 184.2C219.4 155.2 248.7 136.8 284.5 130.3C313.8 124.1 341.8 128.4 367.1 145.6C383.6 156.5 395.4 171.4 403.2 189.5C405.1 192.3 403.8 193.9 400.1 194.8zM48.3 200.4C47.05 200.4 46.74 199.8 47.36 198.8L53.91 190.4C54.53 189.5 56.09 188.9 57.34 188.9H168.6C169.8 188.9 170.1 189.8 169.5 190.7L164.2 198.8C163.6 199.8 162 200.7 161.1 200.7L48.3 200.4zM1.246 229.1C0 229.1-.3116 228.4 .3116 227.5L6.855 219.1C7.479 218.2 9.037 217.5 10.28 217.5H152.4C153.6 217.5 154.2 218.5 153.9 219.4L151.4 226.9C151.1 228.1 149.9 228.8 148.6 228.8L1.246 229.1zM75.72 255.9C75.1 256.8 75.41 257.7 76.65 257.7L144.6 258C145.5 258 146.8 257.1 146.8 255.9L147.4 248.4C147.4 247.1 146.8 246.2 145.5 246.2H83.2C81.95 246.2 80.71 247.1 80.08 248.1L75.72 255.9zM577.2 237.9C577 235.3 576.9 233.1 576.5 230.9C570.9 200.1 542.5 182.6 512.9 189.5C483.9 196 465.2 214.4 458.4 243.7C452.8 268 464.6 292.6 487 302.6C504.2 310.1 521.3 309.2 537.8 300.7C562.4 287.1 575.8 268 577.4 241.2C577.3 240 577.3 238.9 577.2 237.9z"
     id="path2" />
  <path
     style="fill:#000000;stroke:#ffffff;stroke-width:5;stroke-dasharray:none"
     d="m 492.76307,366.14246 c -14.0493,-1.38667 -31.40684,-6.19244 -42.51486,-11.77105 -14.78619,-7.42585 -30.26089,-20.47305 -39.1523,-33.01053 -4.77875,-6.73834 -11.00618,-18.91519 -13.14735,-25.70777 -0.77917,-2.47182 -1.63341,-4.48538 -1.8983,-4.47457 -0.2649,0.0108 -1.99762,2.71448 -3.85048,6.00817 -3.95076,7.02292 -16.07437,22.49904 -24.09823,30.76206 -5.5888,5.75536 -16.00587,14.27274 -22.69251,18.5542 -19.0779,12.21561 -44.41724,19.30591 -69.1052,19.33661 -29.65917,0.0369 -55.76815,-10.6491 -76.50332,-31.31155 -17.52652,-17.46506 -26.44393,-37.05291 -28.94546,-63.5812 -3.48019,-36.90671 10.50228,-71.79862 40.88465,-102.02375 15.47065,-15.39057 31.82121,-25.69428 51.77224,-32.62556 26.84554,-9.32653 53.90748,-10.51648 76.57155,-3.36697 20.53842,6.47897 42.12165,22.4617 53.18991,39.38797 6.2103,9.49718 10.90981,19.3129 9.78503,20.43767 -0.54182,0.54184 -7.22353,2.59986 -14.84823,4.57338 -7.62468,1.97352 -20.82719,5.42561 -29.33887,7.67131 l -15.4758,4.0831 -7.06535,-6.78302 c -10.16699,-9.76071 -19.31539,-13.77124 -33.0626,-14.49417 -9.53162,-0.50124 -15.97848,0.54449 -24.34355,3.94867 -12.45056,5.0668 -26.99161,17.17588 -33.47706,27.87807 -9.71765,16.03592 -12.6105,38.50661 -7.025,54.56773 2.60829,7.50013 8.57268,16.54943 14.01017,21.25648 11.46886,9.92825 28.98295,13.94457 45.72675,10.48604 15.03928,-3.10645 26.97654,-11.34273 37.59119,-25.93655 l 4.23714,-5.82554 h -29.93736 c -17.04769,0 -31.18844,-0.3588 -32.84309,-0.83335 -5.38209,-1.54357 -5.48711,-3.38687 -0.81712,-14.343 4.65734,-10.92645 14.02663,-29.75239 15.76088,-31.66872 1.31708,-1.45536 4.24494,-1.53993 53.31234,-1.53993 h 51.91871 l 2.81552,-7.23814 c 3.33001,-8.56078 9.41208,-19.45579 16.05011,-28.75109 20.73473,-29.03505 45.90107,-46.07889 79.48686,-53.83229 41.02524,-9.47082 75.24822,-3.91239 102.87307,16.70845 28.68284,21.41058 42.54248,51.89849 40.7616,89.66583 -0.86714,18.38964 -4.6803,32.67346 -13.02999,48.80943 -6.11688,11.82104 -13.87902,22.04465 -25.76433,33.93456 -24.19371,24.20305 -52.30626,37.19472 -88.16531,40.74389 -8.50684,0.84197 -13.43198,0.91846 -19.64605,0.30513 z m 36.05386,-61.25133 c 14.10357,-4.86129 30.20576,-17.25446 38.18433,-29.38886 4.13732,-6.29236 7.86098,-15.76584 9.43926,-24.01478 6.45026,-33.71251 -17.27484,-63.78335 -50.39549,-63.87475 -11.68209,-0.0322 -28.6062,5.23504 -38.98052,12.13187 -18.00121,11.96718 -30.05843,34.27861 -30.13418,55.76217 -0.048,13.60357 4.27708,25.29217 12.96585,35.04076 13.97867,15.68371 38.03951,21.54105 58.92075,14.34359 z"
     id="path439" />
  <path
     style="fill:#000000;stroke:#ffffff;stroke-width:5;stroke-dasharray:none"
     d="m 73.638581,200.33256 c -14.297981,-0.0593 -26.1157,-0.18503 -26.261598,-0.27946 -0.145897,-0.0944 -0.265268,-0.30118 -0.265268,-0.45945 0,-0.15826 1.625287,-2.37293 3.611749,-4.92147 2.723139,-3.49366 3.8278,-4.75119 4.489891,-5.11119 l 0.878143,-0.47749 h 56.620542 c 54.86724,0 56.62705,0.0122 56.83059,0.39249 0.27155,0.50738 0.093,0.83298 -3.23925,5.90852 -2.22633,3.391 -2.82901,4.16364 -3.60036,4.61568 l -0.92643,0.54292 -31.07084,-0.0514 c -17.08896,-0.0283 -42.769188,-0.0999 -57.067169,-0.15916 z"
     id="path1132" />
  <path
     style="fill:#000000;stroke:#ffffff;stroke-width:5;stroke-dasharray:none"
     d="m 0.47748359,228.84832 c -0.65713073,-0.28734 -0.0847965,-1.25774 3.30179931,-5.59821 2.7553059,-3.53138 3.7737527,-4.68254 4.5059938,-5.09316 l 0.9460728,-0.53054 71.6225395,-0.0508 c 56.632421,-0.0401 71.729221,0.004 72.132241,0.21222 1.08063,0.55757 1.06748,0.70625 -0.47276,5.34549 -1.6073,4.84124 -1.90668,5.30016 -3.59255,5.50694 -1.21621,0.14917 -148.10716098,0.35504 -148.44333641,0.20804 z"
     id="path1134" />
  <path
     style="fill:#000000;stroke:#ffffff;stroke-width:5;stroke-dasharray:none"
     d="M 91.570743,257.63166 C 83.050313,257.5718 75.950689,257.44 75.7938,257.33878 c -0.156889,-0.10122 -0.24395,-0.4001 -0.193469,-0.66417 0.05048,-0.26408 1.168666,-2.40508 2.484854,-4.75777 1.727385,-3.08772 2.603053,-4.4378 3.147941,-4.85342 l 0.754873,-0.57578 h 32.250291 32.25029 l 0.43025,0.57626 c 0.41635,0.55763 0.42205,0.68452 0.17664,3.92598 -0.41625,5.49782 -0.43518,5.60144 -1.14469,6.26421 l -0.62844,0.58705 -19.12995,-0.0503 c -10.52148,-0.0277 -26.10122,-0.0993 -34.621647,-0.15916 z"
     id="path1136" />
</svg>
