<?xml version="1.0" encoding="UTF-8" standalone="no"?>
<svg
   height="512"
   viewBox="0 0 512 512"
   width="512"
   version="1.1"
   id="svg8232"
   sodipodi:docname="9035061_logo_javascript_icon.svg"
   inkscape:version="1.2.1 (9c6d41e410, 2022-07-14, custom)"
   xmlns:inkscape="http://www.inkscape.org/namespaces/inkscape"
   xmlns:sodipodi="http://sodipodi.sourceforge.net/DTD/sodipodi-0.dtd"
   xmlns="http://www.w3.org/2000/svg"
   xmlns:svg="http://www.w3.org/2000/svg">
  <defs
     id="defs8236" />
  <sodipodi:namedview
     id="namedview8234"
     pagecolor="#505050"
     bordercolor="#eeeeee"
     borderopacity="1"
     inkscape:showpageshadow="0"
     inkscape:pageopacity="0"
     inkscape:pagecheckerboard="0"
     inkscape:deskcolor="#505050"
     showgrid="false"
     inkscape:zoom="1.1780509"
     inkscape:cx="252.53577"
     inkscape:cy="264.4198"
     inkscape:window-width="1920"
     inkscape:window-height="1056"
     inkscape:window-x="1920"
     inkscape:window-y="24"
     inkscape:window-maximized="1"
     inkscape:current-layer="svg8232" />
  <title
     id="title8228" />
  <path
     d="M32,32V480H480V32ZM272,380c0,43.61-25.76,64.87-63.05,64.87-33.68,0-53.23-17.44-63.15-38.49h0l34.28-20.75c6.61,11.73,11.63,21.65,26.06,21.65,12,0,21.86-5.41,21.86-26.46V240h44Zm99.35,63.87c-39.09,0-64.35-17.64-76.68-42h0L329,382c9,14.74,20.75,24.56,41.5,24.56,17.44,0,27.57-7.72,27.57-19.75,0-14.43-10.43-19.54-29.68-28l-10.52-4.52c-30.38-12.92-50.52-29.16-50.52-63.45,0-31.57,24.05-54.63,61.64-54.63,26.77,0,46,8.32,59.85,32.68L396,290c-7.22-12.93-15-18-27.06-18-12.33,0-20.15,7.82-20.15,18,0,12.63,7.82,17.74,25.86,25.56l10.52,4.51c35.79,15.34,55.94,31,55.94,66.16C441.12,424.13,411.35,443.87,371.35,443.87Z"
     id="path8230" />
  <path
     style="fill:#000000;stroke:#ffffff;stroke-width:5;stroke-dasharray:none"
     d="m 31.83224,256.35564 c 0,74.69965 0,149.39931 0,224.09896 149.39931,0 298.79862,0 448.19793,0 0,-149.39931 0,-298.79862 0,-448.197931 -149.39931,0 -298.79862,0 -448.19793,0 0,74.699661 0,149.399311 0,224.098971 z m 338.259,-19.94655 c 18.51355,-0.14528 37.91637,5.79676 50.08106,20.45056 2.71673,3.67895 7.79464,7.49794 7.2866,12.45105 -10.21483,7.12535 -20.78295,14.12071 -31.62832,20.11565 -5.37771,-9.7596 -15.59784,-18.55293 -27.53986,-17.32038 -12.14298,-0.81214 -22.82605,11.63351 -18.86226,23.47627 3.02476,11.78121 16.37523,15.40256 25.96649,20.32456 22.09756,9.74057 47.20592,19.45477 59.4036,41.86768 7.5809,16.22036 8.37525,36.12333 1.11236,52.59488 -9.81706,20.59889 -32.58873,31.78047 -54.66679,32.72879 -28.46087,3.12276 -59.88676,-5.50727 -78.15737,-28.66298 -2.73808,-3.99582 -7.04279,-7.97744 -7.57414,-12.85821 10.84313,-6.628 22.00797,-13.1793 33.43214,-18.54724 6.75506,8.58553 14.13711,17.56099 25.03473,20.91311 12.85706,4.04686 29.45082,4.5714 39.75714,-5.48112 8.10882,-8.9195 4.09049,-24.72186 -6.34324,-30.11462 -22.65248,-13.60682 -51.22156,-19.16285 -68.30687,-40.82243 -12.17181,-15.99076 -14.47306,-38.58989 -7.71581,-57.25734 8.9816,-23.43899 34.93514,-34.59036 58.72054,-33.85823 z m -120.06392,3.81821 c 7.36949,0 14.73899,0 22.10848,0 -0.45057,50.59648 0.17351,101.21463 -1.0992,151.79668 -1.79767,21.18841 -15.51876,41.94803 -36.32689,48.55245 -13.88007,4.44979 -29.15173,5.15938 -43.41785,2.2266 -19.45564,-3.98411 -37.17419,-17.58385 -44.76905,-35.92566 10.77939,-7.30143 21.93335,-14.7072 33.40727,-20.55335 5.87159,9.04768 12.46846,21.22679 24.97338,20.79872 9.7495,1.19892 19.88681,-4.79202 21.83327,-14.74894 1.76023,-21.28177 0.79292,-42.77873 1.1694,-64.14528 0.0262,-29.33373 0.007,-58.66748 0.0127,-88.00122 7.36949,0 14.73898,0 22.10848,0 z"
     id="path8601" />
</svg>
