<?xml version="1.0" encoding="UTF-8" standalone="no"?>
<svg
   role="img"
   viewBox="0 0 24 24"
   version="1.1"
   id="svg1803"
   sodipodi:docname="4691321_linux_icon.svg"
   inkscape:version="1.2.1 (9c6d41e410, 2022-07-14, custom)"
   xmlns:inkscape="http://www.inkscape.org/namespaces/inkscape"
   xmlns:sodipodi="http://sodipodi.sourceforge.net/DTD/sodipodi-0.dtd"
   xmlns="http://www.w3.org/2000/svg"
   xmlns:svg="http://www.w3.org/2000/svg">
  <defs
     id="defs1807" />
  <sodipodi:namedview
     id="namedview1805"
     pagecolor="#505050"
     bordercolor="#eeeeee"
     borderopacity="1"
     inkscape:showpageshadow="0"
     inkscape:pageopacity="0"
     inkscape:pagecheckerboard="0"
     inkscape:deskcolor="#505050"
     showgrid="false"
     inkscape:zoom="25.131754"
     inkscape:cx="11.638663"
     inkscape:cy="9.6491476"
     inkscape:window-width="1920"
     inkscape:window-height="1056"
     inkscape:window-x="1920"
     inkscape:window-y="24"
     inkscape:window-maximized="1"
     inkscape:current-layer="svg1803" />
  <title
     id="title1799" />
  <path
     d="M12.503 0c-.155 0-.315.008-.479.021-4.227.333-3.106 4.807-3.17 6.298-.077 1.093-.3 1.954-1.051 3.021-.885 1.051-2.127 2.75-2.716 4.521-.278.832-.41 1.684-.287 2.489-.039.034-.076.068-.111.135-.26.268-.449.601-.662.839-.199.199-.485.267-.797.4-.313.136-.658.269-.864.681-.09.188-.136.393-.132.601 0 .199.027.401.055.536.058.399.116.729.039.97-.248.68-.279 1.146-.105 1.485.174.334.535.469.939.601.811.2 1.91.135 2.775.599.926.467 1.866.671 2.616.47.526-.115.97-.463 1.208-.945.587-.003 1.23-.269 2.26-.334.699-.058 1.574.267 2.578.199.025.135.063.199.114.334l.003.003c.391.778 1.113 1.132 1.884 1.071.771-.06 1.592-.536 2.257-1.306.631-.765 1.683-1.084 2.378-1.503.348-.199.629-.469.649-.853.023-.4-.199-.812-.714-1.377v-.097l-.003-.003c-.17-.2-.25-.535-.338-.926-.085-.401-.182-.786-.492-1.046h-.003c-.059-.054-.123-.067-.188-.135-.056-.038-.121-.062-.19-.064.431-1.278.264-2.55-.173-3.694-.533-1.41-1.465-2.638-2.175-3.483-.796-1.005-1.576-1.957-1.561-3.369.027-2.152.237-6.133-3.544-6.139zm.529 3.405h.013c.213 0 .396.062.584.198.191.135.33.332.439.533.105.259.158.459.166.724 0-.02.006-.04.006-.059v.104c-.002-.007-.004-.015-.004-.021l-.004-.024c-.002.243-.053.483-.15.706-.047.125-.119.24-.213.335-.029-.016-.057-.03-.088-.042-.105-.045-.199-.064-.285-.133-.071-.028-.145-.051-.219-.066.049-.059.145-.133.182-.198.053-.128.082-.264.088-.402v-.019c.002-.135-.018-.271-.061-.4-.045-.135-.101-.201-.183-.334-.084-.066-.167-.132-.267-.132h-.016c-.093 0-.176.03-.262.132-.095.094-.166.207-.205.334-.053.127-.084.264-.09.4v.019c.002.089.008.179.02.267-.193-.067-.438-.135-.607-.202-.01-.065-.016-.132-.018-.199v-.02c-.008-.264.043-.526.15-.769.082-.219.232-.406.43-.533.171-.129.379-.199.594-.199zm-2.962.059h.036c.142 0 .27.048.399.135.146.129.264.288.344.465.09.199.141.401.153.667v.004c.007.134.006.201-.002.266v.08c-.03.007-.056.018-.083.024-.152.055-.274.135-.393.2.012-.089.013-.179.003-.267v-.015c-.012-.133-.039-.199-.082-.333-.031-.102-.088-.193-.166-.267-.049-.045-.115-.068-.183-.064h-.021c-.071.006-.13.041-.186.132-.064.077-.105.171-.12.27-.027.108-.035.219-.023.331v.014c.012.135.037.201.081.334.045.134.097.2.165.268.011.009.021.018.034.024-.07.057-.117.07-.176.136-.037.028-.08.06-.131.068-.104-.125-.196-.26-.275-.402-.096-.21-.146-.438-.155-.667-.017-.226.011-.452.08-.668.055-.197.152-.379.283-.535.128-.133.26-.2.418-.2zm1.371 1.706c.331 0 .732.065 1.215.399.293.2.523.269 1.053.468h.003c.255.136.405.266.478.399v-.131c.073.147.078.318.016.47-.123.311-.516.644-1.064.843v.002c-.268.135-.501.333-.775.465-.276.135-.588.292-1.012.267-.152.008-.305-.015-.448-.067-.11-.06-.218-.126-.322-.198-.195-.135-.363-.332-.612-.465v-.005h-.005c-.4-.246-.616-.512-.686-.711-.069-.268-.005-.469.193-.6.224-.135.38-.271.483-.336.104-.074.143-.102.176-.131h.002v-.003c.169-.202.436-.469.839-.601.139-.036.294-.065.466-.065zm2.799 2.143c.359 1.417 1.197 3.475 1.736 4.473.286.534.855 1.659 1.102 3.024.156-.005.329.018.513.064.646-1.671-.546-3.467-1.089-3.966-.221-.201-.232-.335-.123-.335.589.534 1.365 1.572 1.646 2.757.129.535.159 1.104.021 1.67.067.028.135.061.205.067 1.032.534 1.413.938 1.23 1.537v-.043c-.061-.003-.12 0-.181 0h-.015c.151-.467-.182-.825-1.065-1.224-.915-.4-1.646-.336-1.771.465-.007.043-.012.066-.017.135-.068.023-.139.053-.209.064-.43.268-.662.669-.793 1.187-.13.533-.17 1.156-.205 1.869v.003c-.021.334-.171.838-.319 1.351-1.5 1.072-3.58 1.538-5.349.334-.111-.193-.246-.374-.402-.533-.074-.125-.168-.237-.275-.334.182 0 .338-.029.465-.067.145-.067.257-.188.314-.334.108-.267 0-.697-.345-1.163-.345-.467-.931-.995-1.788-1.521-.63-.399-.986-.87-1.15-1.396-.165-.534-.143-1.085-.015-1.645.245-1.07.873-2.11 1.274-2.763.107-.065.037.135-.408.974-.396.751-1.141 2.497-.122 3.854.038-.989.258-1.965.647-2.876.564-1.278 1.743-3.504 1.836-5.268.048.036.217.135.289.202.218.133.38.333.59.465.211.201.477.335.876.335.039.003.075.006.111.006.411 0 .729-.134.996-.268.29-.134.521-.334.74-.4h.005c.467-.135.836-.402 1.045-.7zm2.186 8.958c.037.601.343 1.245.882 1.377.588.134 1.434-.333 1.791-.765l.211-.009c.315-.008.577.01.847.267l.003.003c.208.199.305.531.391.876.085.401.154.78.409 1.066.486.527.645.906.636 1.14l.003-.006v.018l-.003-.012c-.015.262-.185.396-.498.595-.63.401-1.746.712-2.457 1.57-.618.737-1.371 1.139-2.036 1.191-.664.053-1.237-.2-1.574-.898l-.005-.003c-.21-.401-.12-1.025.056-1.69.176-.668.428-1.345.463-1.898.037-.714.076-1.335.195-1.814.12-.465.308-.797.641-.984l.045-.022zm-10.815.049h.01c.053 0 .105.005.157.014.376.055.706.333 1.023.752l.91 1.664.003.003c.243.533.754 1.064 1.189 1.638.434.598.77 1.131.729 1.57v.006c-.057.744-.479 1.148-1.125 1.294-.645.135-1.52.002-2.395-.464-.968-.536-2.118-.469-2.857-.602-.369-.066-.611-.201-.723-.401-.111-.199-.113-.601.123-1.23v-.003l.002-.003c.117-.334.03-.753-.027-1.119-.055-.401-.083-.709.043-.94.16-.334.396-.399.689-.533.295-.135.641-.202.916-.469h.002v-.003c.256-.268.445-.601.668-.838.19-.201.38-.336.663-.336zm7.159-9.074c-.435.201-.945.535-1.488.535-.542 0-.97-.267-1.279-.466-.155-.134-.28-.268-.374-.335-.164-.134-.144-.334-.074-.334.109.016.129.135.199.201.096.066.215.199.361.333.291.2.68.467 1.166.467.485 0 1.053-.267 1.398-.466.195-.135.445-.334.648-.467.156-.137.149-.268.279-.268.129.016.034.134-.147.333-.181.135-.461.335-.69.468v-.001zm-1.082-1.584V5.64c-.006-.019.013-.042.029-.05.074-.043.18-.027.26.004.063 0 .16.067.15.135-.006.049-.085.066-.135.066-.055 0-.092-.043-.141-.068-.052-.018-.146-.008-.163-.065zm-.551 0c-.02.058-.113.049-.166.066-.047.025-.086.068-.139.068-.051 0-.131-.019-.137-.068-.009-.066.088-.133.15-.133.081-.031.184-.047.259-.005.019.009.036.03.03.05v.021h.003z"
     id="path1801" />
  <path
     style="fill:#000000;stroke:#ffffff;stroke-width:0.198951"
     d="m 16.026047,23.935621 c -0.361709,-0.08196 -0.695843,-0.276138 -0.952841,-0.553726 -0.197706,-0.213547 -0.450154,-0.643237 -0.450239,-0.766352 -2.2e-5,-0.0302 -0.167079,-0.05105 -0.507358,-0.0633 -0.27903,-0.01005 -0.799644,-0.06042 -1.15692,-0.111941 -0.601141,-0.08669 -0.687209,-0.09014 -1.153918,-0.04626 -0.27738,0.02608 -0.77291,0.101127 -1.10118,0.16677 -0.32827,0.06564 -0.664001,0.119419 -0.7460685,0.119503 -0.1616004,1.59e-4 -0.2140285,0.0415 -0.4035095,0.318123 -0.1661619,0.24258 -0.5400073,0.502245 -0.8745836,0.607468 -0.2386893,0.07507 -0.3688629,0.08867 -0.8208452,0.0858 -0.5996649,-0.0038 -0.946733,-0.08392 -1.5717169,-0.36277 C 5.3483909,22.910214 5.1844823,22.867278 3.8198688,22.682707 2.2951829,22.476485 1.8869629,21.973422 2.2703421,20.773173 2.3853889,20.412995 2.3933494,20.110824 2.3036617,19.508399 2.2659259,19.254931 2.2500136,18.992087 2.2647655,18.8659 2.3240889,18.35845 2.6023788,18.019349 3.150134,17.787063 4.0189465,17.418628 3.9663892,17.458951 4.4996205,16.751716 L 4.8146262,16.333918 4.7935192,16.035491 C 4.6718211,14.314837 5.6193399,12.115648 7.5022099,9.7486234 8.2162985,8.8509168 8.5709021,8.143499 8.7496107,7.2601186 8.8741579,6.6444643 8.8879377,6.2779774 8.8265703,5.2133079 8.7467526,3.8285426 8.7916906,3.0714838 8.9964085,2.3520832 9.4371891,0.80313075 10.585913,0.03862204 12.474259,0.0374733 c 0.565241,-3.4379e-4 0.966497,0.05791618 1.369586,0.1988558 1.018874,0.35624821 1.728902,1.3090897 2.009778,2.6970771 0.127126,0.628211 0.167072,1.1870564 0.179974,2.5178648 0.01435,1.48042 0.04164,1.6366785 0.420465,2.4073132 0.24191,0.4921196 0.572636,0.9607857 1.44607,2.0492004 1.162642,1.4488054 1.901387,2.8654244 2.178752,4.1779814 0.06902,0.32661 0.0885,0.55241 0.08926,1.034548 9.47e-4,0.601609 -0.01804,0.743585 -0.2002,1.496857 -0.01582,0.06541 0.0024,0.09003 0.08138,0.109842 0.156923,0.03938 0.516004,0.416585 0.5917,0.621558 0.03637,0.09848 0.120977,0.398546 0.188017,0.66681 0.143017,0.572288 0.306838,0.92961 0.583546,1.272818 0.257817,0.319776 0.413346,0.640039 0.441015,0.908129 0.01846,0.178841 0.0046,0.248698 -0.08654,0.434887 -0.146648,0.299737 -0.362425,0.455 -1.280748,0.921572 -0.926687,0.47082 -1.252446,0.693129 -1.640775,1.119724 -0.905005,0.994182 -1.946744,1.460872 -2.819494,1.26311 z m 0.958668,-0.403191 c 0.304679,-0.07878 0.73531,-0.291631 1.013987,-0.501185 0.116841,-0.08786 0.412284,-0.365536 0.65654,-0.61706 0.527485,-0.54318 0.7873,-0.72222 1.781774,-1.22783 1.210516,-0.615451 1.356226,-0.822582 1.023158,-1.454443 -0.06463,-0.122607 -0.226267,-0.355381 -0.359195,-0.517274 -0.296814,-0.361489 -0.359836,-0.498423 -0.511358,-1.111095 -0.236826,-0.957591 -0.493943,-1.229695 -1.16375,-1.231582 l -0.310118,-8.76e-4 -0.240708,0.200319 c -0.442832,0.368531 -1.11849,0.630853 -1.466789,0.569479 -0.456043,-0.08036 -0.810814,-0.512311 -0.928234,-1.130173 -0.02472,-0.130063 -0.06362,-0.236477 -0.08646,-0.236477 -0.07929,0 -0.338819,0.245557 -0.437509,0.413959 -0.230575,0.393447 -0.34168,0.949182 -0.414429,2.072934 -0.0399,0.61631 -0.08946,0.849001 -0.466127,2.188467 -0.132722,0.47197 -0.145842,0.56432 -0.1498,1.054443 -0.0042,0.522879 -0.0012,0.542742 0.111747,0.746688 0.231496,0.417822 0.516239,0.664154 0.90995,0.787198 0.232794,0.07275 0.745207,0.07004 1.037318,-0.0055 z M 8.7933629,23.197435 C 8.9615159,23.132407 9.0984527,23.038581 9.2578653,22.879168 9.449965,22.687068 9.497097,22.609729 9.5716524,22.364271 9.7743152,21.697049 9.5706736,21.193508 8.6133178,19.994626 8.0293749,19.263362 7.9377131,19.121462 7.3207164,17.993567 6.8098296,17.059646 6.7496341,16.967697 6.4838058,16.715186 6.1428587,16.39132 5.914287,16.295431 5.5466229,16.322025 c -0.3151788,0.0228 -0.4975351,0.155214 -0.8513676,0.618211 -0.4899329,0.641086 -0.5765576,0.706564 -1.3317594,1.006639 -0.7390006,0.293638 -0.8877228,0.614377 -0.7373361,1.590162 0.084505,0.548314 0.074901,0.805117 -0.0439,1.173814 -0.138056,0.428455 -0.1693169,0.870953 -0.075497,1.068663 0.1356612,0.285885 0.501289,0.424234 1.3301439,0.50331 1.1494845,0.109666 1.6590824,0.230155 2.2709043,0.536932 0.7487706,0.375445 1.2543426,0.500612 1.9497247,0.482702 0.4040243,-0.01041 0.5421336,-0.03012 0.7358272,-0.105023 z m 3.9594281,-1.814797 c 0.828598,-0.168601 2.08858,-0.767178 2.193001,-1.041826 0.142458,-0.374693 0.277537,-1.069882 0.314674,-1.619476 0.08043,-1.190338 0.211005,-1.794472 0.477652,-2.210005 0.151462,-0.236033 0.398133,-0.456961 0.575603,-0.515531 0.112918,-0.03727 0.133024,-0.06723 0.177026,-0.263858 0.116377,-0.520027 0.560171,-0.720559 1.217524,-0.550149 0.458347,0.118821 1.182584,0.502916 1.404412,0.744822 0.123358,0.134523 0.202525,0.374955 0.176423,0.535799 -0.01995,0.122924 -0.01446,0.130141 0.09903,0.130141 0.10534,0 0.123304,-0.01682 0.145749,-0.136467 0.04063,-0.21655 -0.04716,-0.47829 -0.230284,-0.686633 -0.179782,-0.204539 -0.776786,-0.610475 -1.052893,-0.715921 -0.17161,-0.06554 -0.173642,-0.06852 -0.149551,-0.219172 0.20949,-1.31008 -0.321419,-2.787339 -1.440672,-4.00868 -0.170951,-0.186543 -0.288593,-0.284827 -0.318674,-0.266236 -0.09028,0.0558 -0.04695,0.142106 0.2209,0.440023 0.502339,0.558727 0.916959,1.334675 1.093838,2.047081 0.107693,0.433749 0.117283,1.142097 0.02021,1.492515 -0.03572,0.128949 -0.07941,0.247762 -0.09709,0.264028 -0.01768,0.01627 -0.134277,0.02052 -0.259108,0.0095 l -0.226964,-0.02011 -0.04518,-0.224019 C 16.882722,13.746898 16.644719,13.119149 15.975346,11.738138 15.673034,11.114425 15.283132,10.246002 15.108897,9.8083088 14.816332,9.0733605 14.351655,7.7189091 14.285358,7.4078365 L 14.257134,7.2754112 14.084827,7.4552414 C 13.867926,7.6816112 13.66163,7.812203 13.297971,7.9533424 13.140372,8.0145084 12.851944,8.1564539 12.657019,8.2687772 12.145614,8.5634689 11.859056,8.650885 11.415002,8.6476628 10.95916,8.6443562 10.76048,8.5604616 10.285792,8.1708513 10.099773,8.0181715 9.8642436,7.8365348 9.7623944,7.7672137 L 9.5772139,7.6411755 9.550147,7.8891459 C 9.4373598,8.9224291 9.0472827,10.062614 8.0972106,12.136041 c -0.6891282,1.503946 -0.8966339,2.231153 -1.0046072,3.520667 -0.0093,0.111054 -0.018267,0.102895 -0.1410455,-0.128312 -0.232751,-0.438301 -0.2929004,-0.664387 -0.3156958,-1.186608 -0.035266,-0.80793 0.1061183,-1.324058 0.6886531,-2.513946 0.3637136,-0.742921 0.441876,-0.950833 0.3191747,-0.849 -0.092733,0.07696 -0.4905062,0.768916 -0.7630777,1.327426 -1.0258556,2.10202 -0.8153398,3.564973 0.6494577,4.513323 1.2826685,0.830436 2.0225154,1.630239 2.137478,2.310696 0.063101,0.373488 -0.1701704,0.662487 -0.571378,0.707879 l -0.2366429,0.02677 0.2058066,0.256057 c 0.1131935,0.140831 0.2736502,0.352242 0.3565712,0.469801 0.1291347,0.183077 0.2066211,0.242435 0.5400905,0.413726 0.4288877,0.220305 0.9498217,0.387261 1.3782397,0.441719 0.354532,0.04507 1.027388,0.01477 1.412556,-0.0636 z M 11.962617,8.2812892 c 0.271287,-0.093336 0.477371,-0.1980224 0.820061,-0.416573 0.147697,-0.094194 0.423502,-0.2470559 0.612901,-0.3396933 0.548243,-0.2681536 0.873652,-0.6318131 0.866447,-0.968293 -0.0028,-0.128983 -0.06857,-0.3394709 -0.07399,-0.2366381 -0.0016,0.030311 -0.07938,-0.014292 -0.181155,-0.1038777 C 13.891524,6.11467 13.705303,6.0130977 13.479662,5.9286456 13.118124,5.7933303 12.862663,5.6688782 12.454364,5.4291548 12.227243,5.295806 12.222726,5.290213 12.361561,5.3142555 L 12.5075,5.3395275 12.48606,5.1796664 c -0.03219,-0.2399836 0.11168,-0.6735849 0.274944,-0.8286457 0.177664,-0.1687371 0.264788,-0.1877983 0.421839,-0.09229 0.348896,0.2121762 0.448425,1.0618941 0.153073,1.3068352 -0.07432,0.061634 -0.08663,0.1244465 -0.0244,0.1244465 0.0228,0 0.160415,0.05562 0.305816,0.123601 0.30534,0.1427581 0.301505,0.1446533 0.472605,-0.2335153 0.343972,-0.7602526 0.08742,-1.6797343 -0.5778,-2.0708065 -0.151141,-0.088853 -0.2301,-0.1072214 -0.460917,-0.1072214 -0.325056,0 -0.558595,0.09579 -0.796246,0.3265931 -0.258155,0.2507168 -0.441988,0.8036261 -0.411592,1.2379316 l 0.01413,0.2018781 -0.339407,-0.00323 C 11.312866,5.163283 11.090599,5.187617 10.955832,5.226795 10.723884,5.294224 10.316642,5.5653392 10.183658,5.7408582 10.14135,5.7966902 9.9366325,5.9617316 9.7287282,6.1076124 9.5208239,6.2534932 9.328973,6.4116978 9.3023927,6.459178 9.229586,6.5892322 9.2417503,6.868502 9.3274538,7.0345223 9.417627,7.2092017 9.6323951,7.4186964 9.9077846,7.600603 c 0.1094234,0.072279 0.3153384,0.2252703 0.4575884,0.3399806 0.438686,0.3537545 0.589173,0.4153793 1.01435,0.4153793 0.25421,0 0.432084,-0.022787 0.582894,-0.074674 z M 9.8947839,5.8611195 C 9.9675882,5.8020353 10.03386,5.7490744 10.042054,5.7434289 10.050249,5.7377835 10.012872,5.6807767 9.9589951,5.6167477 9.7340776,5.3494489 9.7066056,4.7764216 9.9061643,4.5147864 9.9718076,4.4287236 10.045316,4.3769329 10.101825,4.3769329 c 0.188255,0 0.366718,0.3108065 0.408612,0.7116273 l 0.02442,0.2336578 0.223632,-0.1175394 C 10.881488,5.1400317 10.995823,5.0503901 11.012567,5.0054752 11.062525,4.8714687 10.971373,4.3046208 10.861035,4.0631419 10.750842,3.8219815 10.568646,3.6078699 10.397192,3.5180466 10.239505,3.435436 9.9324577,3.4470103 9.7776432,3.5414009 9.6147696,3.6407053 9.4272363,3.9317977 9.3418981,4.2177717 c -0.088574,0.2968194 -0.084744,0.8318282 0.00798,1.1141284 0.067884,0.2066812 0.3276903,0.6351519 0.3857479,0.6361733 0.014735,2.785e-4 0.086357,-0.04787 0.1591612,-0.1069539 z"
     id="path2172" />
</svg>
