<?xml version="1.0" encoding="UTF-8" standalone="no"?>
<svg
   role="img"
   viewBox="0 0 24 24"
   version="1.1"
   id="svg2450"
   sodipodi:docname="4691213_python_icon.svg"
   inkscape:version="1.2.1 (9c6d41e410, 2022-07-14, custom)"
   xmlns:inkscape="http://www.inkscape.org/namespaces/inkscape"
   xmlns:sodipodi="http://sodipodi.sourceforge.net/DTD/sodipodi-0.dtd"
   xmlns="http://www.w3.org/2000/svg"
   xmlns:svg="http://www.w3.org/2000/svg">
  <defs
     id="defs2454" />
  <sodipodi:namedview
     id="namedview2452"
     pagecolor="#505050"
     bordercolor="#eeeeee"
     borderopacity="1"
     inkscape:showpageshadow="0"
     inkscape:pageopacity="0"
     inkscape:pagecheckerboard="0"
     inkscape:deskcolor="#505050"
     showgrid="false"
     inkscape:zoom="35.541667"
     inkscape:cx="11.831184"
     inkscape:cy="12.028136"
     inkscape:window-width="1920"
     inkscape:window-height="1056"
     inkscape:window-x="1920"
     inkscape:window-y="24"
     inkscape:window-maximized="1"
     inkscape:current-layer="svg2450" />
  <title
     id="title2446" />
  <path
     d="M14.31.18l.9.2.73.26.59.3.45.32.34.34.25.34.16.33.1.3.04.26.02.2-.01.13V8.5l-.05.63-.13.55-.21.46-.26.38-.3.31-.33.25-.35.19-.35.14-.33.1-.3.07-.26.04-.21.02H8.83l-.69.05-.59.14-.5.22-.41.27-.33.32-.27.35-.2.36-.15.37-.1.35-.07.32-.04.27-.02.21v3.06H3.23l-.21-.03-.28-.07-.32-.12-.35-.18-.36-.26-.36-.36-.35-.46-.32-.59-.28-.73-.21-.88-.14-1.05L0 11.97l.06-1.22.16-1.04.24-.87.32-.71.36-.57.4-.44.42-.33.42-.24.4-.16.36-.1.32-.05.24-.01h.16l.06.01h8.16v-.83H6.24l-.01-2.75-.02-.37.05-.34.11-.31.17-.28.25-.26.31-.23.38-.2.44-.18.51-.15.58-.12.64-.1.71-.06.77-.04.84-.02 1.27.05 1.07.13zm-6.3 1.98l-.23.33-.08.41.08.41.23.34.33.22.41.09.41-.09.33-.22.23-.34.08-.41-.08-.41-.23-.33-.33-.22-.41-.09-.41.09-.33.22zM21.1 6.11l.28.06.32.12.35.18.36.27.36.35.35.47.32.59.28.73.21.88.14 1.04.05 1.23-.06 1.23-.16 1.04-.24.86-.32.71-.36.57-.4.45-.42.33-.42.24-.4.16-.36.09-.32.05-.24.02-.16-.01h-8.22v.82h5.84l.01 2.76.02.36-.05.34-.11.31-.17.29-.25.25-.31.24-.38.2-.44.17-.51.15-.58.13-.64.09-.71.07-.77.04-.84.01-1.27-.04-1.07-.14-.9-.2-.73-.25-.59-.3-.45-.33-.34-.34-.25-.34-.16-.33-.1-.3-.04-.25-.02-.2.01-.13v-5.34l.05-.64.13-.54.21-.46.26-.38.3-.32.33-.24.35-.2.35-.14.33-.1.3-.06.26-.04.21-.02.13-.01h5.84l.69-.05.59-.14.5-.21.41-.28.33-.32.27-.35.2-.36.15-.36.1-.35.07-.32.04-.28.02-.21V6.07h2.09l.14.01.21.03zm-6.47 14.25l-.23.33-.08.41.08.41.23.33.33.23.41.08.41-.08.33-.23.23-.33.08-.41-.08-.41-.23-.33-.33-.23-.41-.08-.41.08-.33.23z"
     id="path2448" />
  <path
     style="fill:#000000;stroke:#ffffff;stroke-width:0.14068"
     d="M 2.996483,17.878741 C 2.4631933,17.763817 1.991074,17.507569 1.5801072,17.109989 0.63992503,16.200432 0.13931969,14.744905 0.04033877,12.63306 -0.03579934,11.008586 0.1886718,9.4649135 0.64585998,8.4689332 1.2112053,7.2373334 2.0787453,6.5121952 3.2534608,6.2893556 3.4517579,6.2517392 4.0340258,6.2461899 7.7827096,6.2461899 H 12.084408 V 5.8241501 5.4021102 H 9.1768721 6.2693363 L 6.2498251,3.8160003 C 6.239094,2.94364 6.2383917,2.1744723 6.2482635,2.1067389 6.377408,1.2207141 7.2470074,0.59490004 8.7793747,0.28520497 9.5694815,0.1255225 10.17636,0.06499709 11.309106,0.03290911 c 2.863968,-0.0811294 4.906435,0.42798787 5.88596,1.46716859 0.254766,0.2702819 0.384868,0.4666955 0.506102,0.7640598 0.178897,0.4388007 0.179028,0.4412803 0.179146,3.4082698 5.7e-5,1.6431331 -0.01148,2.8213649 -0.02992,3.052755 -0.124586,1.5635547 -0.907986,2.4475287 -2.506431,2.8282107 -0.18856,0.04491 -0.503378,0.05086 -3.569052,0.06752 -2.2716582,0.01234 -3.427986,0.02857 -3.5649084,0.05003 -0.7790248,0.122104 -1.3899602,0.420923 -1.8411447,0.900535 -0.4349757,0.462382 -0.6693119,0.938426 -0.8450248,1.716634 -0.058719,0.260057 -0.061955,0.347714 -0.072112,1.953401 l -0.010634,1.681125 -1.1308609,-0.0022 C 3.4534669,17.918695 3.1350392,17.9086 2.996483,17.878741 Z M 8.9848952,3.9240878 C 9.5496926,3.7956273 9.8944206,3.2425612 9.7691252,2.6659046 9.6847687,2.2776643 9.3770178,1.9785772 8.9626694,1.8821524 8.7601412,1.8350211 8.7404475,1.8350194 8.5379721,1.8821158 8.3905038,1.9164166 8.2740551,1.9665395 8.1567306,2.0462131 7.420627,2.5460904 7.620332,3.6896694 8.4830012,3.9145477 c 0.2335864,0.060891 0.2728426,0.061637 0.501894,0.00954 z"
     id="path2510" />
  <path
     style="fill:#000000;stroke:#ffffff;stroke-width:0.3;stroke-dasharray:none"
     d="M 3.1512309,17.808553 C 2.8119724,17.773514 2.388771,17.603924 2.0117233,17.351918 1.9188746,17.289861 1.7289566,17.123569 1.5896835,16.98238 0.64986626,16.029637 0.17811295,14.532654 0.1215225,12.323564 0.08111527,10.746209 0.30745984,9.3888779 0.77221874,8.4215038 1.2894147,7.3449842 1.9891608,6.7294489 3.0438989,6.4232081 l 0.26208,-0.076094 4.4243845,-0.00955 4.4243846,-0.00955 V 5.8228536 5.3177022 H 9.2611695 6.3675911 L 6.3491806,4.8323564 C 6.3390547,4.5654162 6.3307313,3.8387311 6.330684,3.2175008 6.3305996,1.9407409 6.3377706,1.8866845 6.5510282,1.559518 7.0499415,0.79411557 8.2563942,0.34123123 10.269637,0.16360786 c 0.633059,-0.0558533 2.599641,-0.0469963 3.160544,0.0142343 1.146984,0.12520966 1.99343,0.33597611 2.677674,0.66674532 0.970727,0.46925802 1.554213,1.17141552 1.647847,1.98299112 0.03665,0.3176304 0.03407,5.6435044 -0.0029,6.0037965 -0.07271,0.7085391 -0.308233,1.2904479 -0.698094,1.7247859 -0.282543,0.314777 -0.791713,0.622436 -1.312863,0.79328 -0.498384,0.163381 -0.348549,0.156322 -3.966934,0.186884 -1.8928884,0.01599 -3.448758,0.04066 -3.5795749,0.05676 -0.416869,0.05131 -0.9579354,0.23611 -1.2990778,0.443697 -0.5780601,0.351755 -1.0560813,0.95538 -1.2816526,1.618418 -0.041215,0.121146 -0.1072136,0.342717 -0.1466639,0.49238 -0.071669,0.271888 -0.071747,0.273534 -0.093811,1.974343 -0.012145,0.936225 -0.02348,1.705392 -0.025188,1.709261 -0.00769,0.01743 -2.0094559,-0.0032 -2.1977133,-0.02263 z M 8.9903015,4.0079744 C 9.3629107,3.9109221 9.6185245,3.7067395 9.7713684,3.3840636 9.8551768,3.2071315 9.861663,3.1722086 9.8616422,2.898007 9.8616225,2.6364291 9.8529825,2.5841452 9.7862363,2.4416957 9.6437914,2.1376902 9.3564366,1.9009154 9.0218,1.8118151 8.51265,1.6762487 7.9448942,1.9497677 7.7143276,2.4416957 7.647546,2.5841783 7.6389215,2.6363684 7.6389215,2.898007 c 0,0.2731307 0.00664,0.3092309 0.087946,0.4783119 0.1613003,0.3354254 0.3783554,0.51419 0.756134,0.6227454 0.2139964,0.061492 0.2996488,0.062997 0.5073,0.00891 z"
     id="path2994" />
  <path
     style="fill:#000000;stroke:#ffffff;stroke-width:0.3;stroke-dasharray:none"
     d="M 11.505243,23.967309 C 10.090553,23.920072 8.7652933,23.642116 7.9050269,23.212212 7.2486296,22.884187 6.7152816,22.374675 6.4585616,21.83039 6.2491264,21.386355 6.2624615,21.604402 6.2522666,18.45721 c -0.00961,-2.967806 0.00158,-3.355396 0.1108063,-3.835187 0.1004989,-0.441473 0.3791502,-0.95641 0.7089932,-1.310193 0.1408577,-0.151082 0.4714078,-0.385675 0.7333416,-0.520456 0.3109851,-0.160022 0.7046618,-0.284493 1.1235313,-0.355233 0.318974,-0.05387 0.4626318,-0.05631 3.321457,-0.05631 3.170592,0 3.547662,-0.01196 4.035865,-0.127963 1.185078,-0.281599 1.97534,-1.108161 2.271784,-2.3761403 0.110621,-0.4731596 0.123208,-0.704485 0.123737,-2.2741438 l 5.16e-4,-1.52854 1.174677,0.011824 c 1.242811,0.01251 1.301326,0.018122 1.688237,0.1619269 0.870177,0.3234213 1.572834,1.1115267 2.018832,2.2643372 0.500353,1.2933082 0.669623,3.468456 0.406608,5.224994 -0.27542,1.839392 -1.017689,3.087368 -2.179327,3.664102 -0.362241,0.179847 -0.476644,0.219559 -0.854068,0.296474 -0.274387,0.05592 -0.370038,0.0571 -4.6017,0.0571 h -4.321489 v 0.42204 0.42204 h 2.926143 2.926143 l 0.007,1.413833 c 0.0096,1.921034 0.0098,1.914358 -0.06249,2.131302 -0.213171,0.640182 -0.729873,1.056617 -1.707426,1.376096 -0.823178,0.269027 -1.823967,0.413597 -3.048376,0.440358 -0.348183,0.0076 -0.696366,0.01726 -0.77374,0.02144 -0.07737,0.0042 -0.426627,-0.0019 -0.776117,-0.01361 z m 4.071093,-1.841667 c 0.418532,-0.08655 0.72929,-0.395478 0.815068,-0.810254 0.04,-0.193445 0.04003,-0.233207 3.04e-4,-0.425317 -0.152397,-0.736914 -0.990064,-1.078454 -1.606758,-0.655121 -0.358466,0.246072 -0.515049,0.630315 -0.436339,1.070748 0.07232,0.40468 0.375409,0.716762 0.788551,0.81195 0.116061,0.02674 0.212831,0.04972 0.215045,0.05107 0.0022,0.0013 0.103071,-0.01804 0.224128,-0.04307 z"
     id="path2996" />
</svg>
